<svg id="visual" viewBox="0 0 900 600" width="900" height="600" xmlns="http://www.w3.org/2000/svg" xmlns:xlink="http://www.w3.org/1999/xlink" version="1.1"><rect x="0" y="0" width="900" height="600" fill="#D598FB"></rect><path d="M185 0L176.7 11.2C168.3 22.3 151.7 44.7 145.3 66.8C139 89 143 111 153 133.2C163 155.3 179 177.7 180.3 200C181.7 222.3 168.3 244.7 163.7 266.8C159 289 163 311 173.3 333.2C183.7 355.3 200.3 377.7 209.5 400C218.7 422.3 220.3 444.7 213.3 466.8C206.3 489 190.7 511 176 533.2C161.3 555.3 147.7 577.7 140.8 588.8L134 600L0 600L0 588.8C0 577.7 0 555.3 0 533.2C0 511 0 489 0 466.8C0 444.7 0 422.3 0 400C0 377.7 0 355.3 0 333.2C0 311 0 289 0 266.8C0 244.7 0 222.3 0 200C0 177.7 0 155.3 0 133.2C0 111 0 89 0 66.8C0 44.7 0 22.3 0 11.2L0 0Z" fill="#FF6130" stroke-linecap="round" stroke-linejoin="miter"></path></svg>