<svg xmlns="http://www.w3.org/2000/svg" viewBox="0 0 1440 320"><path fill="#d598fb" fill-opacity="1" d="M0,96L26.7,101.3C53.3,107,107,117,160,133.3C213.3,149,267,171,320,170.7C373.3,171,427,149,480,133.3C533.3,117,587,107,640,128C693.3,149,747,203,800,208C853.3,213,907,171,960,149.3C1013.3,128,1067,128,1120,154.7C1173.3,181,1227,235,1280,234.7C1333.3,235,1387,181,1413,154.7L1440,128L1440,320L1413.3,320C1386.7,320,1333,320,1280,320C1226.7,320,1173,320,1120,320C1066.7,320,1013,320,960,320C906.7,320,853,320,800,320C746.7,320,693,320,640,320C586.7,320,533,320,480,320C426.7,320,373,320,320,320C266.7,320,213,320,160,320C106.7,320,53,320,27,320L0,320Z"></path></svg>
